<?xml version="1.0" encoding="UTF-8"?>
<svg xmlns="http://www.w3.org/2000/svg" xmlns:xlink="http://www.w3.org/1999/xlink" width="30pt" height="30.000001pt" viewBox="0 0 30 30.000001" version="1.2">
<defs>
<clipPath id="clip1">
  <path d="M 26 12 L 29.515625 12 L 29.515625 24 L 26 24 Z M 26 12 "/>
</clipPath>
<clipPath id="clip2">
  <path d="M 17 0.140625 L 27 0.140625 L 27 7 L 17 7 Z M 17 0.140625 "/>
</clipPath>
<clipPath id="clip3">
  <path d="M 11.46875 23.953125 L 13.644531 23.953125 L 13.644531 26.132812 L 11.46875 26.132812 Z M 11.46875 23.953125 "/>
</clipPath>
<clipPath id="clip4">
  <path d="M 14.039062 24.734375 L 15.488281 24.734375 L 15.488281 26.1875 L 14.039062 26.1875 Z M 14.039062 24.734375 "/>
</clipPath>
<clipPath id="clip5">
  <path d="M 9.71875 24.734375 L 11.171875 24.734375 L 11.171875 26.1875 L 9.71875 26.1875 Z M 9.71875 24.734375 "/>
</clipPath>
</defs>
<g id="surface1">
<path style=" stroke:none;fill-rule:nonzero;fill:rgb(100%,100%,100%);fill-opacity:1;" d="M 13.925781 20.101562 L 11.792969 14.558594 C 10.125 14.027344 7.773438 13.5625 6.753906 13.40625 C 6.289062 13.964844 4.867188 15.898438 4.3125 16.707031 C 4.464844 17.734375 4.960938 20.285156 6.507812 22.433594 L 10.988281 23.742188 C 11.515625 23.121094 12.90625 21.5 13.925781 20.101562 "/>
<path style=" stroke:none;fill-rule:nonzero;fill:rgb(100%,100%,100%);fill-opacity:1;" d="M 16.957031 10.820312 L 21.375 13.6875 C 22.488281 13 24.21875 12.035156 25.023438 11.566406 C 24.929688 10.914062 24.746094 7.832031 24.621094 6.773438 C 22.242188 4.6875 19.890625 3.910156 19.273438 3.722656 C 18.5 4.160156 16.523438 5.28125 15.9375 5.621094 C 16.277344 6.464844 16.707031 8.050781 16.957031 10.820312 "/>
<path style=" stroke:none;fill-rule:nonzero;fill:rgb(100%,100%,100%);fill-opacity:1;" d="M 19.890625 19.851562 L 14.574219 20.160156 C 13.554688 21.625 12.039062 23.367188 11.453125 24.054688 L 13.402344 26.667969 C 14.171875 26.792969 16.585938 27.011719 20.015625 26.140625 L 22.367188 22.839844 L 19.890625 19.851562 "/>
<path style=" stroke:none;fill-rule:nonzero;fill:rgb(100%,100%,100%);fill-opacity:1;" d="M 21.5625 14.214844 L 20.199219 19.382812 L 22.796875 22.496094 L 25.734375 21.003906 L 25.703125 20.972656 C 25.734375 20.941406 27.621094 18.480469 27.558594 14.464844 C 27.09375 13.933594 25.917969 12.628906 25.363281 12.003906 C 24.589844 12.472656 22.703125 13.53125 21.5625 14.214844 "/>
<path style=" stroke:none;fill-rule:nonzero;fill:rgb(100%,100%,100%);fill-opacity:1;" d="M 6.199219 8.640625 C 6.351562 9.578125 6.753906 11.910156 6.878906 12.84375 C 7.960938 13.03125 10.464844 13.5 12.195312 14.089844 L 16.398438 10.632812 C 16.214844 8.550781 15.875 7.179688 15.65625 6.433594 C 15.53125 6.058594 15.441406 5.808594 15.378906 5.621094 C 14.359375 5.34375 11.945312 4.625 10.988281 4.347656 C 10.277344 4.78125 8.050781 6.308594 6.199219 8.640625 "/>
<g clip-path="url(#clip1)" clip-rule="nonzero">
<path style=" stroke:none;fill-rule:nonzero;fill:rgb(100%,100%,100%);fill-opacity:1;" d="M 29.042969 12.128906 L 28.117188 14.027344 C 28.300781 18.011719 26.691406 20.597656 26.261719 21.21875 L 26.445312 23.179688 C 28.207031 20.816406 29.289062 17.886719 29.289062 14.714844 C 29.257812 13.8125 29.195312 12.96875 29.042969 12.128906 "/>
</g>
<g clip-path="url(#clip2)" clip-rule="nonzero">
<path style=" stroke:none;fill-rule:nonzero;fill:rgb(100%,100%,100%);fill-opacity:1;" d="M 25.117188 6.464844 L 25.085938 6.496094 L 26.816406 6.773438 C 24.777344 3.785156 21.625 1.636719 17.945312 0.953125 L 19.335938 3.164062 C 19.863281 3.320312 22.457031 4.097656 25.117188 6.464844 "/>
</g>
<path style=" stroke:none;fill-rule:nonzero;fill:rgb(100%,100%,100%);fill-opacity:1;" d="M 15.195312 27.351562 C 14.050781 27.351562 13.308594 27.226562 13.089844 27.199219 L 11.175781 28.070312 C 12.503906 28.503906 13.894531 28.722656 15.378906 28.722656 C 17.976562 28.722656 20.417969 28.007812 22.519531 26.730469 L 20.015625 26.730469 C 18.039062 27.199219 16.398438 27.351562 15.195312 27.351562 "/>
<path style=" stroke:none;fill-rule:nonzero;fill:rgb(100%,100%,100%);fill-opacity:1;" d="M 3.757812 16.738281 L 1.46875 14.496094 C 1.46875 14.558594 1.46875 14.652344 1.46875 14.714844 C 1.46875 18.699219 3.105469 22.277344 5.765625 24.832031 C 5.828125 24.238281 5.949219 23.242188 6.011719 22.683594 C 4.40625 20.410156 3.878906 17.765625 3.757812 16.738281 "/>
<path style=" stroke:none;fill-rule:nonzero;fill:rgb(100%,100%,100%);fill-opacity:1;" d="M 5.703125 8.332031 C 7.652344 5.902344 9.875 4.347656 10.617188 3.878906 L 11.359375 1.296875 C 7.402344 2.507812 4.1875 5.4375 2.582031 9.203125 C 3.507812 8.953125 5.023438 8.550781 5.703125 8.332031 "/>
<g clip-path="url(#clip3)" clip-rule="nonzero">
<path style=" stroke:none;fill-rule:nonzero;fill:rgb(100%,100%,100%);fill-opacity:1;" d="M 12.652344 23.960938 L 13.015625 24.777344 L 13.828125 24.910156 L 13.238281 25.542969 L 13.378906 26.441406 L 12.652344 26.019531 L 11.925781 26.441406 L 12.0625 25.542969 L 11.476562 24.910156 L 12.289062 24.777344 Z M 12.652344 23.960938 "/>
<path style=" stroke:none;fill-rule:nonzero;fill:rgb(100%,100%,100%);fill-opacity:1;" d="M 12.644531 23.953125 L 13.007812 24.769531 L 13.820312 24.902344 L 13.234375 25.535156 L 13.371094 26.433594 L 12.644531 26.011719 L 11.921875 26.433594 L 12.058594 25.535156 L 11.472656 24.902344 L 12.28125 24.769531 Z M 12.644531 23.953125 "/>
<path style=" stroke:none;fill-rule:nonzero;fill:rgb(100%,100%,100%);fill-opacity:1;" d="M 12.644531 23.953125 L 13.007812 24.769531 L 13.820312 24.902344 L 13.234375 25.535156 L 13.371094 26.433594 L 12.644531 26.011719 L 11.921875 26.433594 L 12.058594 25.535156 L 11.472656 24.902344 L 12.28125 24.769531 Z M 12.644531 23.953125 "/>
<path style=" stroke:none;fill-rule:nonzero;fill:rgb(100%,100%,100%);fill-opacity:1;" d="M 12.644531 23.953125 L 13.007812 24.769531 L 13.820312 24.902344 L 13.234375 25.535156 L 13.371094 26.433594 L 12.644531 26.011719 L 11.921875 26.433594 L 12.058594 25.535156 L 11.472656 24.902344 L 12.28125 24.769531 Z M 12.644531 23.953125 "/>
</g>
<g clip-path="url(#clip4)" clip-rule="nonzero">
<path style=" stroke:none;fill-rule:nonzero;fill:rgb(100%,100%,100%);fill-opacity:1;" d="M 14.925781 24.742188 L 15.195312 25.355469 L 15.800781 25.457031 L 15.363281 25.933594 L 15.464844 26.613281 L 14.925781 26.292969 L 14.386719 26.613281 L 14.488281 25.933594 L 14.050781 25.457031 L 14.65625 25.355469 Z M 14.925781 24.742188 "/>
<path style=" stroke:none;fill-rule:nonzero;fill:rgb(100%,100%,100%);fill-opacity:1;" d="M 14.921875 24.734375 L 15.191406 25.351562 L 15.796875 25.449219 L 15.359375 25.929688 L 15.460938 26.605469 L 14.921875 26.285156 L 14.382812 26.605469 L 14.484375 25.929688 L 14.046875 25.449219 L 14.652344 25.351562 Z M 14.921875 24.734375 "/>
<path style=" stroke:none;fill-rule:nonzero;fill:rgb(100%,100%,100%);fill-opacity:1;" d="M 14.921875 24.734375 L 15.191406 25.351562 L 15.796875 25.449219 L 15.359375 25.929688 L 15.460938 26.605469 L 14.921875 26.285156 L 14.382812 26.605469 L 14.484375 25.929688 L 14.046875 25.449219 L 14.652344 25.351562 Z M 14.921875 24.734375 "/>
<path style=" stroke:none;fill-rule:nonzero;fill:rgb(100%,100%,100%);fill-opacity:1;" d="M 14.921875 24.734375 L 15.191406 25.351562 L 15.796875 25.449219 L 15.359375 25.929688 L 15.460938 26.605469 L 14.921875 26.285156 L 14.382812 26.605469 L 14.484375 25.929688 L 14.046875 25.449219 L 14.652344 25.351562 Z M 14.921875 24.734375 "/>
</g>
<g clip-path="url(#clip5)" clip-rule="nonzero">
<path style=" stroke:none;fill-rule:nonzero;fill:rgb(100%,100%,100%);fill-opacity:1;" d="M 10.605469 24.742188 L 10.875 25.355469 L 11.480469 25.457031 L 11.042969 25.933594 L 11.144531 26.613281 L 10.605469 26.292969 L 10.066406 26.613281 L 10.167969 25.933594 L 9.730469 25.457031 L 10.335938 25.355469 Z M 10.605469 24.742188 "/>
<path style=" stroke:none;fill-rule:nonzero;fill:rgb(100%,100%,100%);fill-opacity:1;" d="M 10.601562 24.734375 L 10.871094 25.351562 L 11.476562 25.449219 L 11.039062 25.929688 L 11.140625 26.605469 L 10.601562 26.285156 L 10.0625 26.605469 L 10.164062 25.929688 L 9.726562 25.449219 L 10.332031 25.351562 Z M 10.601562 24.734375 "/>
<path style=" stroke:none;fill-rule:nonzero;fill:rgb(100%,100%,100%);fill-opacity:1;" d="M 10.601562 24.734375 L 10.871094 25.351562 L 11.476562 25.449219 L 11.039062 25.929688 L 11.140625 26.605469 L 10.601562 26.285156 L 10.0625 26.605469 L 10.164062 25.929688 L 9.726562 25.449219 L 10.332031 25.351562 Z M 10.601562 24.734375 "/>
<path style=" stroke:none;fill-rule:nonzero;fill:rgb(100%,100%,100%);fill-opacity:1;" d="M 10.601562 24.734375 L 10.871094 25.351562 L 11.476562 25.449219 L 11.039062 25.929688 L 11.140625 26.605469 L 10.601562 26.285156 L 10.0625 26.605469 L 10.164062 25.929688 L 9.726562 25.449219 L 10.332031 25.351562 Z M 10.601562 24.734375 "/>
</g>
</g>
</svg>
